Coordinates
version=1
nRows=26
nColumns=24
inDegrees=yes

Units are S.I. units (second, meters, Newtons, ...)
Angles are in degrees.

endheader
time	pelvis_tilt	pelvis_list	pelvis_rotation	pelvis_tx	pelvis_ty	pelvis_tz	hip_flexion_r	hip_adduction_r	hip_rotation_r	knee_angle_r	ankle_angle_r	subtalar_angle_r	mtp_angle_r	hip_flexion_l	hip_adduction_l	hip_rotation_l	knee_angle_l	ankle_angle_l	subtalar_angle_l	mtp_angle_l	lumbar_extension	lumbar_bending	lumbar_rotation
      3.72500000	     -7.28924835	     -2.89560538	     10.22525173	     -1.30879220	     -0.04651091	      0.57569456	     34.83556154	     -3.93717792	    -23.77595880	    -13.61982785	      0.23359136	      6.71113510	      0.38489079	    -10.07738655	     -2.38026813	      8.30568821	    -11.41897318	     17.96489145	     15.26288584	     -1.12952450	      3.41427327	      0.67231311	    -11.96408980
      3.73000000	     -7.33921030	     -3.25393019	     10.25134313	     -1.30097038	     -0.04783899	      0.57597302	     34.91855370	     -3.52455538	    -23.41728723	    -14.18678158	     -0.36509588	      6.46910671	      0.17429738	    -10.08027005	     -2.90202920	      7.59835975	    -12.21272940	     18.20153651	     16.45495769	     -0.85649224	      3.61606336	      1.09745354	    -11.94080485
      3.73500000	     -7.40243258	     -3.59571710	     10.23993215	     -1.29313452	     -0.04910747	      0.57622566	     35.03925182	     -3.13971868	    -23.08221292	    -14.81892848	     -1.10086586	      6.25077962	      0.21962546	    -10.09650627	     -3.38226483	      7.10307734	    -12.96611127	     18.27425259	     17.27411486	     -0.55826313	      3.83111429	      1.51888790	    -11.86242389
      3.74000000	     -7.45778142	     -3.94270819	     10.20195347	     -1.28532759	     -0.05030040	      0.57656457	     35.18743505	     -2.74499769	    -22.76338773	    -15.52331895	     -1.96432006	      5.84993065	      0.31738369	    -10.08051840	     -3.87768694	      6.51489885	    -13.78718581	     18.28312389	     18.18709146	     -0.17792661	      4.02816442	      1.94107853	    -11.75928987
      3.74500000	     -7.52636725	     -4.32441600	     10.15652822	     -1.27750678	     -0.05140989	      0.57690271	     35.35994060	     -2.32681602	    -22.39551909	    -16.26008593	     -2.88860744	      5.35574037	      0.35474759	    -10.00597182	     -4.41031379	      5.93222995	    -14.67798712	     18.21528852	     19.09689545	      0.26488129	      4.25089291	      2.40785704	    -11.64654771
      3.75000000	     -7.59793382	     -4.72268365	     10.07146532	     -1.26968724	     -0.05242858	      0.57729606	     35.56148153	     -1.88187423	    -21.98232575	    -17.05521657	     -3.83104338	      4.74521808	      0.28663010	     -9.88978174	     -4.96560020	      5.28855839	    -15.63540481	     18.04844975	     20.07583470	      0.82708034	      4.47630277	      2.89455021	    -11.45984820
      3.75500000	     -7.70731779	     -5.19695617	     10.03185603	     -1.26181955	     -0.05335781	      0.57757665	     35.80282063	     -1.41325485	    -21.60761436	    -17.87992598	     -4.72779789	      4.05483231	      0.07110761	     -9.66921634	     -5.59050019	      4.80602804	    -16.68537902	     17.80619814	     20.88970499	      1.32955338	      4.77362998	      3.45943105	    -11.37056469
      3.76000000	     -7.78616360	     -5.60726493	      9.90465784	     -1.25407958	     -0.05419771	      0.57807385	     36.06823268	     -0.94178924	    -21.10563731	    -18.81788989	     -5.56623427	      3.09052959	     -0.29164040	     -9.41741907	     -6.18119272	      3.99666218	    -17.86549177	     17.44240149	     22.03541960	      2.05311036	      4.99238553	      3.95863600	    -11.16379167
      3.76500000	     -7.82733237	     -5.98278377	      9.67151849	     -1.24633516	     -0.05493644	      0.57867517	     36.32658132	     -0.44647698	    -20.54037615	    -19.85513195	     -6.23502454	      2.17684073	     -0.82660557	     -9.20134001	     -6.74729705	      3.03700591	    -19.06924604	     16.85997155	     23.21336484	      3.24836148	      5.15014657	      4.44605619	    -10.84004692
      3.77000000	     -7.92353499	     -6.42211952	      9.52039088	     -1.23858298	     -0.05558036	      0.57918412	     36.61473315	      0.06150659	    -20.05311625	    -20.86549416	     -6.80773838	      1.12743529	     -1.43065542	     -8.82919420	     -7.38837174	      2.28038573	    -20.40526438	     16.14746606	     24.29811323	      4.43074855	      5.39279879	      4.97901909	    -10.60825992
      3.77500000	     -7.95864584	     -6.80200224	      9.36692498	     -1.23093470	     -0.05604125	      0.57973036	     36.82724543	      0.54153057	    -19.51301127	    -21.89309716	     -7.21403501	      0.07937931	     -2.13420562	     -8.46626589	     -7.99916238	      1.48003682	    -21.80575532	     15.14543213	     25.37500738	      6.10095665	      5.53821883	      5.45617287	    -10.41454040
      3.78000000	     -8.03355251	     -7.24266465	      9.21693437	     -1.22321481	     -0.05644238	      0.58023838	     37.04801980	      1.07695309	    -19.07194652	    -22.86520946	     -7.52900067	     -0.98218091	     -2.72771152	     -8.00330129	     -8.67535448	      0.78945747	    -23.28256411	     13.97487809	     26.33119850	      7.93341302	      5.75192913	      5.99366778	    -10.21004346
      3.78500000	     -8.09796981	     -7.61773613	      8.99606931	     -1.21559006	     -0.05678956	      0.58089023	     37.23615222	      1.62086214	    -18.52846336	    -23.79539164	     -7.74059113	     -2.05890212	     -3.02593547	     -7.49468610	     -9.30828604	     -0.00053036	    -24.91751244	     12.71722615	     27.42539579	      9.31370917	      5.91293766	      6.46475330	     -9.92512184
      3.79000000	     -8.16139508	     -7.99806250	      8.81898635	     -1.20797843	     -0.05697039	      0.58148863	     37.35717720	      2.16277795	    -18.05981030	    -24.61483756	     -7.88375515	     -3.05849366	     -3.16486323	     -6.91854214	     -9.96790628	     -0.69157917	    -26.59244066	     11.13885984	     28.37871900	     11.12381873	      6.07974262	      6.93371736	     -9.74144535
      3.79500000	     -8.21974133	     -8.36188659	      8.64605255	     -1.20044209	     -0.05707508	      0.58211019	     37.42589533	      2.70339124	    -17.64610626	    -25.34974779	     -7.92678093	     -3.98696979	     -3.06633385	     -6.27466983	    -10.62674936	     -1.31348772	    -28.36563994	      9.39347409	     29.23535063	     12.86534118	      6.22062842	      7.38193041	     -9.53903585
      3.80000000	     -8.33037178	     -8.77566744	      8.47767217	     -1.19289087	     -0.05719181	      0.58268798	     37.49835411	      3.27889729	    -17.36078253	    -25.99250507	     -7.85473599	     -4.73745924	     -2.91007560	     -5.48814119	    -11.34082905	     -1.85179848	    -30.29850820	      7.67959995	     30.02354902	     13.83042903	      6.43919331	      7.87407159	     -9.37066193
      3.80500000	     -8.32206401	     -9.02434488	      8.28643803	     -1.18558017	     -0.05698811	      0.58342070	     37.38301363	      3.78588478	    -16.93281915	    -26.51704530	     -7.82472251	     -5.66135848	     -2.36666057	     -4.82472454	    -11.89975159	     -2.33809675	    -32.09776249	      5.45404172	     30.50126189	     15.96405113	      6.44203075	      8.20083548	     -9.12169762
      3.81000000	     -8.39964729	     -9.38579215	      8.12991530	     -1.17815935	     -0.05685175	      0.58402301	     37.29114170	      4.34938963	    -16.66788023	    -26.93277613	     -7.59763520	     -6.23150044	     -1.91316932	     -3.96036762	    -12.57232685	     -2.73118373	    -34.07952571	      3.38214412	     30.84569867	     17.00937779	      6.59470672	      8.63484615	     -8.98631823
      3.81500000	     -8.39196404	     -9.60498041	      7.96610342	     -1.17098497	     -0.05648199	      0.58471578	     37.06279626	      4.81474626	    -16.37687106	    -27.27007472	     -7.37565206	     -6.82108279	     -1.14428210	     -3.15744681	    -13.09882882	     -3.04239523	    -35.99336171	      1.05589282	     30.96143363	     18.53274075	      6.57857467	      8.91650511	     -8.78322981
      3.82000000	     -8.44377155	     -9.90708113	      7.83452623	     -1.16379636	     -0.05614163	      0.58534320	     36.84348085	      5.33351652	    -16.17409853	    -27.51360554	     -7.03063353	     -7.24579558	     -0.70052404	     -2.18624007	    -13.70427832	     -3.25350131	    -38.04285165	     -1.07171881	     30.91814451	     19.16140191	      6.65827514	      9.27749178	     -8.66867239
      3.82500000	     -8.45913839	    -10.17353261	      7.68155002	     -1.15679280	     -0.05568696	      0.58597850	     36.54457635	      5.84277867	    -15.94488010	    -27.66520928	     -6.70971039	     -7.65034603	     -0.02896646	     -1.20432050	    -14.25301568	     -3.43152723	    -40.07312649	     -3.22623454	     30.41521581	     20.09778877	      6.65626701	      9.61111801	     -8.49555149
      3.83000000	     -8.47560520	    -10.45896803	      7.55607000	     -1.14977249	     -0.05513869	      0.58655169	     36.19025118	      6.35053511	    -15.80886160	    -27.73341497	     -6.30328569	     -7.89502564	      0.43538456	     -0.16035541	    -14.81030023	     -3.51693338	    -42.12652794	     -5.23044561	     29.78964757	     20.50876751	      6.67444662	      9.95967595	     -8.35916691
      3.83500000	     -8.49236383	    -10.74604781	      7.43465072	     -1.14279080	     -0.05451018	      0.58711570	     35.79137339	      6.85900909	    -15.71999730	    -27.72381579	     -5.87340710	     -8.08346893	      0.82013159	      0.93030991	    -15.34825226	     -3.53422476	    -44.16920682	     -7.07726966	     28.92368059	     20.74788022	      6.69413727	     10.30692409	     -8.20107318
      3.84000000	     -8.49678053	    -11.02594637	      7.32204902	     -1.13594509	     -0.05381768	      0.58763319	     35.34355010	      7.35792324	    -15.62127794	    -27.64051153	     -5.44028167	     -8.20596081	      1.22714786	      2.06388791	    -15.86219511	     -3.51697397	    -46.20788772	     -8.71089294	     27.83941851	     20.95734035	      6.68073015	     10.64804027	     -8.06757383
      3.84500000	     -8.41350832	    -11.29082496	      7.15873377	     -1.12913758	     -0.05296499	      0.58816277	     34.75862714	      7.89257472	    -15.46729739	    -27.49628966	     -4.95832471	     -8.17586194	      1.40043120	      3.09121350	    -16.34564963	     -3.52391020	    -48.20254740	    -10.02898145	     26.61451417	     20.81475272	      6.55142737	     10.99929733	     -7.82493653
      3.85000000	     -8.37227937	    -11.57809380	      7.02727621	     -1.12236330	     -0.05209296	      0.58864590	     34.18475077	      8.41716946	    -15.38376119	    -27.28254439	     -4.50219385	     -8.13027073	      1.58553489	      4.21465736	    -16.83219209	     -3.46383210	    -50.16502398	    -11.09856200	     25.30034634	     20.72469298	      6.48103613	     11.35814765	     -7.64299136
